<?xml version="1.0" encoding="iso-8859-1"?>
<!-- Generator: Adobe Illustrator 16.0.0, SVG Export Plug-In . SVG Version: 6.00 Build 0)  -->
<!DOCTYPE svg PUBLIC "-//W3C//DTD SVG 1.1//EN" "http://www.w3.org/Graphics/SVG/1.1/DTD/svg11.dtd">
<svg version="1.1" id="Capa_1" xmlns="http://www.w3.org/2000/svg" xmlns:xlink="http://www.w3.org/1999/xlink" x="0px" y="0px"
	 width="44px" height="44px" viewBox="-49 141 512 512" style="enable-background:new -49 141 512 512;" xml:space="preserve">
<polygon points="127.748,323.811 127.748,323.811 127.734,323.783 "/>
<polygon points="57.436,462.293 57.341,462.73 57.341,462.744 "/>
<polygon points="160.906,371.541 160.819,371.958 160.806,372.019 "/>
<polygon points="187.261,527.136 187.274,527.095 187.281,527.068 "/>
<path d="M348.474,390.263c0-22.326-18.095-40.42-40.421-40.42c-22.333,0-40.421,18.095-40.421,40.42
	c0,22.326,18.089,40.421,40.421,40.421C330.379,430.684,348.474,412.589,348.474,390.263z M287.842,390.263
	c0-11.143,9.068-20.211,20.211-20.211s20.211,9.068,20.211,20.211s-9.068,20.211-20.211,20.211S287.842,401.405,287.842,390.263z"/>
<path d="M207,141c-38.589,0-75.103,8.657-107.911,23.956C83.352,150.155,62.05,141,38.579,141C-9.711,141-49,179.535-49,226.895
	c0,17.812,10.907,40.26,24.367,61.238C-40.195,321.183-49,358.047-49,397c0,141.379,114.601,256,256,256s256-114.621,256-256
	S348.399,141,207,141z M38.579,161.211c37.201,0,67.368,29.393,67.368,65.684c0,36.271-67.368,109.474-67.368,109.474
	s-67.368-73.203-67.368-109.474C-28.789,190.604,1.384,161.211,38.579,161.211z M-11.159,307.703
	c14.801,20.13,29.527,36.547,34.871,42.348l14.868,16.162l14.868-16.162c12.146-13.191,72.71-81.132,72.71-123.156
	c0-16.855-5.045-32.546-13.628-45.824c16.235-7.135,33.414-12.504,51.301-15.839l-5.478,9.849
	c-2.647,4.796-3.632,9.943-3.658,15.022c0.054,6.393,1.549,12.84,5.523,18.513l-0.013-0.014l15.366,21.585
	c0.843,1.146,1.967,3.509,2.702,6.138c0.754,2.626,1.179,5.557,1.172,7.842c0.007,1.037-0.087,1.946-0.202,2.594l0.007-0.021
	l-3.989,21.732c-0.215,1.449-1.482,4.292-3.354,6.649c-1.819,2.398-4.257,4.332-5.605,4.904l-27.021,12.47
	c-8.643,4.021-13.703,12.564-13.703,21.477c0,3.268,0.693,6.649,2.162,9.836l11.405,24.831c0.593,1.267,1.273,3.47,1.725,5.922
	c0.458,2.452,0.707,5.173,0.707,7.619c0,2.162-0.209,4.137-0.499,5.39l-0.134,0.546l-3.106,13.487
	c-0.331,1.624-1.786,4.675-3.792,7.249c-1.967,2.613-4.541,4.803-6.017,5.544l-19.961,10.591c-1.024,0.58-3.349,1.192-5.807,1.166
	c-2.971,0.047-6.056-0.89-7.208-1.705l-16.33-10.515c-5.423-3.43-11.426-4.709-17.381-4.749c-5.483,0.034-11.048,1.132-16.169,4.129
	l0.014-0.007l-16.357,9.681c-3.146,1.853-5.801,4.412-7.653,7.484c-1.846,3.065-2.857,6.629-2.85,10.206
	c-0.026,5.376,2.264,10.665,6.09,14.6l-0.013-0.014l9.155,9.552c0.83,0.836,2.054,2.769,2.87,5.04
	c0.83,2.256,1.287,4.837,1.273,6.771c0.007,0.814-0.074,1.528-0.181,2.074l-1.826,8.745c-0.404,2.068-1.846,5.706-3.759,8.974
	c-1.867,3.288-4.298,6.36-5.881,7.747l-8.28,7.425c-5.51,4.965-12.632,12.396-17.711,18.384
	c-18.365-33.576-28.854-72.071-28.854-112.977C-28.789,365.403-22.491,335.264-11.159,307.703z M11.214,528.239
	c0.917-1.132,1.899-2.357,2.944-3.638c3.989-4.95,12.214-13.58,17.145-17.98l8.272-7.424c3.928-3.557,7.141-7.95,9.903-12.699
	c2.721-4.77,4.911-9.754,6.03-14.929l1.839-8.84c0.41-2.027,0.593-4.068,0.593-6.116c-0.007-4.709-0.923-9.331-2.513-13.717
	c-1.617-4.372-3.867-8.515-7.249-12.072l-9.155-9.56l-0.021-0.014l-0.357-0.485l0.485-0.397l16.364-9.681l0.021-0.007
	c0.977-0.627,3.354-1.32,5.841-1.294c2.694-0.034,5.383,0.788,6.447,1.536l16.316,10.51c5.646,3.563,11.917,4.877,18.156,4.925
	c5.173-0.027,10.381-0.957,15.279-3.517l19.962-10.591c5.079-2.742,9.128-6.656,12.577-11.089c3.396-4.48,6.13-9.412,7.458-15.022
	l3.261-14.174c0.701-3.186,0.977-6.44,0.984-9.782c-0.007-3.758-0.365-7.585-1.051-11.297c-0.694-3.719-1.684-7.296-3.228-10.678
	L146.1,315.347l-0.013-0.027l-0.289-1.34c0-1.308,0.761-2.6,1.959-3.125l27.029-12.47c5.376-2.534,9.6-6.414,13.089-10.867
	c3.449-4.494,6.151-9.552,7.262-15.395l3.988-21.727l0.007-0.021c0.378-2.069,0.525-4.136,0.533-6.198
	c-0.013-4.507-0.714-9.042-1.96-13.399c-1.266-4.359-3.012-8.529-5.672-12.295l-15.36-21.578l-0.007-0.013
	c-0.842-1.064-1.812-3.961-1.765-6.763c-0.021-2.209,0.552-4.265,1.105-5.194l12.753-22.919c6.036-0.485,12.099-0.809,18.244-0.809
	c117.208,0,214.683,85.975,232.751,198.17l-9.026-5.019c-3.739-2.062-7.774-3.409-11.999-4.386
	c-4.224-0.956-8.569-1.489-12.826-1.495c-2.317,0-4.602,0.155-6.892,0.56l-1.867,0.331c-17.055-31.763-50.577-53.422-89.085-53.422
	c-55.721,0-101.052,45.332-101.052,101.052c0,34.054,33.435,83.281,59.203,116.163l-15.421,17.341
	c-0.923,1.093-3.274,2.803-5.962,3.921c-2.661,1.172-5.659,1.799-7.451,1.772l-0.64-0.021l-29.461-2.27l-0.741-0.162l-0.034-0.014
	v-0.101l0.095-0.606l0.026-0.073l5.255-17.51c0.74-2.486,1.058-4.979,1.058-7.397c-0.014-4.796-1.219-9.384-3.354-13.527
	c-2.143-4.123-5.275-7.882-9.573-10.597l-11.816-7.383c-4.049-2.526-8.577-3.679-12.981-3.672
	c-7.505,0.014-15.017,3.274-19.975,9.822l-35.819,47.758c-3.167,4.21-4.703,9.223-4.703,14.113
	c-0.007,7.12,3.241,14.255,9.418,18.896l13.103,9.822c0.72,0.519,1.765,1.738,2.479,3.335c0.741,1.576,1.152,3.469,1.139,4.924
	c0,0.768-0.108,1.415-0.236,1.873l-10.576,36.412C81.196,602.905,39.575,570.413,11.214,528.239z M227.21,397.007
	c0-44.665,36.19-80.843,80.843-80.843c44.646,0,80.843,36.177,80.843,80.843c0,44.632-80.843,134.73-80.843,134.73
	S227.21,441.638,227.21,397.007z M207,632.789c-19.86,0-39.154-2.5-57.593-7.148l10.624-36.614c0.72-2.514,1.03-5.026,1.03-7.492
	c-0.014-4.695-1.078-9.216-2.999-13.394c-1.933-4.156-4.722-8.03-8.711-11.041l-13.097-9.822c-0.862-0.641-1.321-1.63-1.327-2.721
	c0.007-0.735,0.202-1.388,0.653-1.988l35.827-47.764c0.66-0.95,2.224-1.751,3.8-1.73c0.909,0,1.684,0.235,2.27,0.599l11.81,7.383
	c0.693,0.418,1.657,1.408,2.351,2.763c0.701,1.34,1.098,2.971,1.084,4.224c0,0.66-0.094,1.2-0.209,1.59l-5.234,17.462
	c-0.674,2.183-0.99,4.393-0.99,6.534c-0.021,5.2,1.98,10.348,5.571,14.06c3.571,3.753,8.596,5.989,13.871,6.374l29.461,2.27
	c0.734,0.055,1.462,0.081,2.189,0.081c5.416-0.026,10.584-1.348,15.455-3.422c4.851-2.115,9.371-4.951,13.062-9.048l13.191-14.848
	c6.164,7.397,11.136,13.036,13.925,16.141l15.037,16.761l15.037-16.768c14.37-16.007,86.017-98.379,86.017-148.224
	c0-9.822-1.477-19.294-4.103-28.282c0.302-0.007,0.572-0.034,0.896-0.034c2.5-0.007,5.558,0.35,8.341,0.984
	c2.775,0.62,5.308,1.57,6.67,2.345l21.497,11.944c0.242,4.325,0.384,8.664,0.384,13.036
	C442.789,527.014,337.014,632.789,207,632.789z"/>
<path d="M73.947,221.835c0-18.607-15.077-33.684-33.691-33.684c-18.614,0-33.677,15.07-33.677,33.684
	c0,18.607,15.064,33.685,33.678,33.685S73.947,240.442,73.947,221.835z M26.79,221.835c0-7.43,6.035-13.473,13.467-13.473
	c7.438,0,13.48,6.042,13.48,13.473c0,7.431-6.043,13.474-13.48,13.474C32.825,235.315,26.79,229.266,26.79,221.835z"/>
</svg>
