<?xml version="1.0" encoding="utf-8"?>
<!-- Generator: Adobe Illustrator 16.0.0, SVG Export Plug-In . SVG Version: 6.00 Build 0)  -->
<!DOCTYPE svg PUBLIC "-//W3C//DTD SVG 1.1//EN" "http://www.w3.org/Graphics/SVG/1.1/DTD/svg11.dtd">
<svg version="1.1" id="Layer_1" xmlns="http://www.w3.org/2000/svg" xmlns:xlink="http://www.w3.org/1999/xlink" x="0px" y="0px"
	 width="44px" height="44px" viewBox="0 0 44 44" enable-background="new 0 0 44 44" xml:space="preserve">
<g>
	<path d="M44,22C44,9.871,34.129,0,22,0S0,9.871,0,22c0,6.406,2.754,12.184,7.141,16.207l-0.02,0.02l0.711,0.602
		c0.047,0.039,0.098,0.07,0.145,0.109c0.378,0.312,0.773,0.609,1.171,0.898c0.129,0.094,0.258,0.188,0.391,0.281
		c0.43,0.293,0.867,0.574,1.316,0.836c0.098,0.059,0.196,0.113,0.293,0.172c0.489,0.277,0.993,0.543,1.504,0.781
		c0.039,0.02,0.075,0.035,0.114,0.055c1.672,0.773,3.457,1.344,5.32,1.684c0.051,0.008,0.098,0.016,0.148,0.023
		c0.578,0.102,1.164,0.18,1.758,0.234c0.07,0.008,0.145,0.012,0.215,0.02C20.797,43.969,21.395,44,22,44
		c0.598,0,1.191-0.031,1.777-0.078c0.074-0.008,0.148-0.012,0.223-0.016c0.59-0.055,1.168-0.133,1.742-0.23
		c0.051-0.008,0.102-0.02,0.152-0.027c1.836-0.328,3.594-0.887,5.242-1.645c0.062-0.027,0.125-0.055,0.184-0.082
		c0.496-0.234,0.977-0.484,1.449-0.75c0.117-0.066,0.234-0.133,0.352-0.203c0.43-0.254,0.855-0.516,1.266-0.801
		c0.148-0.098,0.293-0.207,0.438-0.312c0.352-0.25,0.699-0.512,1.031-0.785c0.074-0.059,0.156-0.113,0.23-0.172l0.73-0.613
		l-0.023-0.02C41.219,34.242,44,28.441,44,22L44,22z M1.602,22C1.602,10.75,10.75,1.602,22,1.602S42.398,10.75,42.398,22
		c0,6.062-2.66,11.512-6.871,15.25c-0.234-0.16-0.469-0.309-0.715-0.43l-6.773-3.387c-0.605-0.305-0.984-0.914-0.984-1.594v-2.367
		c0.156-0.191,0.324-0.41,0.492-0.652c0.879-1.238,1.582-2.617,2.094-4.098c1.016-0.48,1.668-1.492,1.668-2.633v-2.836
		c0-0.692-0.254-1.363-0.707-1.895v-3.734c0.039-0.414,0.188-2.758-1.508-4.691C27.621,7.254,25.234,6.398,22,6.398
		c-3.234,0-5.621,0.856-7.094,2.536c-1.695,1.933-1.547,4.277-1.508,4.691v3.734c-0.453,0.528-0.707,1.203-0.707,1.895v2.836
		c0,0.883,0.395,1.703,1.071,2.258c0.648,2.539,1.98,4.461,2.476,5.109v2.316c0,0.652-0.359,1.254-0.929,1.566L8.98,36.789
		c-0.199,0.109-0.402,0.238-0.601,0.383C4.223,33.434,1.602,28.02,1.602,22L1.602,22z M33.969,38.504
		c-0.281,0.203-0.566,0.402-0.855,0.59c-0.133,0.086-0.266,0.172-0.398,0.258c-0.379,0.234-0.762,0.453-1.156,0.664
		c-0.086,0.043-0.172,0.086-0.258,0.133c-0.902,0.461-1.836,0.859-2.793,1.18c-0.031,0.012-0.066,0.023-0.102,0.035
		c-0.5,0.168-1.008,0.312-1.523,0.441h-0.004c-0.52,0.129-1.043,0.234-1.57,0.324c-0.016,0-0.031,0.004-0.043,0.008
		c-0.496,0.078-1,0.137-1.5,0.184c-0.09,0.008-0.18,0.012-0.27,0.02C23,42.375,22.5,42.398,22,42.398
		c-0.508,0-1.012-0.023-1.516-0.062c-0.086-0.004-0.175-0.012-0.261-0.02c-0.508-0.043-1.012-0.105-1.512-0.184l-0.066-0.012
		c-1.059-0.18-2.098-0.438-3.114-0.777c-0.031-0.012-0.062-0.023-0.093-0.035c-0.504-0.168-1-0.359-1.489-0.57
		c-0.004,0-0.008,0-0.011-0.004c-0.461-0.199-0.915-0.418-1.364-0.652c-0.058-0.031-0.117-0.059-0.176-0.09
		c-0.41-0.219-0.808-0.453-1.203-0.699c-0.117-0.074-0.234-0.148-0.347-0.227c-0.364-0.234-0.723-0.484-1.071-0.746
		c-0.035-0.027-0.07-0.055-0.105-0.082l0.074-0.043l6.328-3.449c1.086-0.594,1.762-1.734,1.762-2.973v-2.883l-0.184-0.223
		c-0.019-0.02-1.746-2.121-2.402-4.973l-0.07-0.316l-0.274-0.176c-0.386-0.25-0.617-0.664-0.617-1.113v-2.836
		c0-0.371,0.16-0.719,0.445-0.981L15,18.035v-4.453l-0.008-0.105c0-0.02-0.238-1.946,1.117-3.489C17.266,8.668,19.25,8,22,8
		c2.742,0,4.719,0.664,5.875,1.973c1.355,1.527,1.133,3.488,1.133,3.504L29,18.039l0.266,0.238c0.285,0.258,0.445,0.606,0.445,0.977
		v2.836c0,0.57-0.391,1.09-0.945,1.262l-0.398,0.121l-0.129,0.398c-0.473,1.465-1.145,2.82-1.996,4.023
		c-0.211,0.297-0.414,0.559-0.59,0.762l-0.195,0.223v2.961c0,1.289,0.715,2.449,1.867,3.027l6.773,3.387
		c0.043,0.02,0.086,0.043,0.129,0.066C34.141,38.383,34.055,38.441,33.969,38.504L33.969,38.504z M33.969,38.504"/>
</g>
</svg>
