<?xml version="1.0" encoding="utf-8"?>
<!-- Generator: Adobe Illustrator 16.0.0, SVG Export Plug-In . SVG Version: 6.00 Build 0)  -->
<!DOCTYPE svg PUBLIC "-//W3C//DTD SVG 1.1//EN" "http://www.w3.org/Graphics/SVG/1.1/DTD/svg11.dtd">
<svg version="1.1" id="Layer_1" xmlns="http://www.w3.org/2000/svg" xmlns:xlink="http://www.w3.org/1999/xlink" x="0px" y="0px"
	 width="46.398px" height="45.602px" viewBox="0 0 46.398 45.602" enable-background="new 0 0 46.398 45.602" xml:space="preserve">
<g>
	<g id="XMLID_1_">
		<g>
			<path d="M30.399,1.601c-0.5,0-0.96,0.15-1.34,0.41c-0.101-0.2-0.23-0.38-0.37-0.55c-0.08-0.1-0.16-0.19-0.26-0.28
				c-0.131-0.13-0.271-0.26-0.421-0.37c0.671-0.51,1.49-0.81,2.391-0.81c-0.44,0-0.8,0.36-0.8,0.8S29.959,1.601,30.399,1.601z"/>
			<path d="M24.259,2.011c-0.17-0.31-0.38-0.59-0.629-0.83c0,0,0-0.01-0.01-0.01c-0.12-0.13-0.26-0.25-0.41-0.36
				c0.67-0.51,1.49-0.81,2.391-0.81c-0.44,0-0.801,0.36-0.801,0.8s0.36,0.8,0.801,0.8C25.099,1.601,24.639,1.751,24.259,2.011z"/>
			<path d="M19.459,2.011c-0.26-0.47-0.62-0.88-1.05-1.2c0.67-0.51,1.49-0.81,2.39-0.81c-0.44,0-0.8,0.36-0.8,0.8s0.36,0.8,0.8,0.8
				C20.299,1.601,19.839,1.751,19.459,2.011z"/>
			<path fill="#FFFFFF" d="M27.999,4.001c0,0.44-0.359,0.8-0.8,0.8s-0.8-0.36-0.8-0.8c0-0.72,0.189-1.41,0.54-1.99
				C27.579,2.441,27.999,3.181,27.999,4.001z"/>
			<path fill="#FFFFFF" d="M17.339,2.011c0.64,0.43,1.06,1.17,1.06,1.99c0,0.44-0.36,0.8-0.8,0.8s-0.8-0.36-0.8-0.8
				C16.799,3.281,16.989,2.591,17.339,2.011z"/>
			<path fill="#FFFFFF" d="M21.599,4.001c0-0.72,0.19-1.41,0.54-1.99c0.64,0.43,1.06,1.17,1.06,1.99c0,0.44-0.36,0.8-0.8,0.8
				C21.959,4.801,21.599,4.441,21.599,4.001z"/>
			<path fill="#FFFFFF" d="M16.799,4.001c0,0.44,0.36,0.8,0.8,0.8s0.8-0.36,0.8-0.8c0,1.32-1.08,2.4-2.4,2.4
				c-0.44,0-0.8,0.36-0.8,0.8s0.36,0.8,0.8,0.8c2.21,0,4-1.79,4-4c0-0.73-0.19-1.41-0.54-1.99c0.38-0.26,0.84-0.41,1.34-0.41
				s0.96,0.15,1.34,0.41c-0.35,0.58-0.54,1.27-0.54,1.99c0,0.44,0.36,0.8,0.8,0.8c0.44,0,0.8-0.36,0.8-0.8c0,1.32-1.07,2.4-2.4,2.4
				c-0.44,0-0.8,0.36-0.8,0.8s0.36,0.8,0.8,0.8c2.2,0,4-1.79,4-4c0-0.55-0.109-1.08-0.319-1.55c-0.061-0.16-0.13-0.3-0.221-0.44
				c0.381-0.26,0.841-0.41,1.341-0.41s0.96,0.15,1.34,0.41c-0.351,0.58-0.54,1.27-0.54,1.99c0,0.44,0.359,0.8,0.8,0.8
				s0.8-0.36,0.8-0.8c0,1.32-1.08,2.4-2.399,2.4c-0.44,0-0.801,0.36-0.801,0.8s0.36,0.8,0.801,0.8c2.21,0,4-1.79,4-4
				c0-0.73-0.19-1.41-0.54-1.99c0.38-0.26,0.84-0.41,1.34-0.41c1.319,0,2.399,1.08,2.399,2.4c0,1.32-1.08,2.4-2.399,2.4
				c-0.44,0-0.8,0.36-0.8,0.8s0.359,0.8,0.8,0.8c1.93,0,3.55-1.38,3.92-3.2h10.479v7.2h-43.2v-7.2h13.6c0.44,0,0.8-0.36,0.8-0.8
				c0-0.44-0.36-0.8-0.8-0.8h-1.45c0.33-0.93,1.21-1.6,2.25-1.6c0.5,0,0.96,0.15,1.34,0.41C16.989,2.591,16.799,3.281,16.799,4.001z
				"/>
			<path d="M19.459,2.011c-0.64,0.43-1.06,1.16-1.06,1.99c0-0.82-0.42-1.56-1.06-1.99c0.27-0.48,0.63-0.89,1.07-1.2
				C18.839,1.131,19.199,1.541,19.459,2.011z"/>
			<path d="M28.429,1.181c0.1,0.09,0.18,0.18,0.26,0.28C28.609,1.361,28.519,1.271,28.429,1.181z"/>
			<path d="M28.009,0.811c0,0-0.01-0.01-0.01,0.01c-0.26-0.21-0.54-0.38-0.85-0.5C27.459,0.441,27.749,0.611,28.009,0.811z"/>
			<path d="M44.799,44.001v-30.4h-43.2v30.4H44.799z M15.999,0.001c0.91,0,1.74,0.3,2.41,0.81c-0.44,0.31-0.8,0.72-1.07,1.2
				c-0.38-0.26-0.84-0.41-1.34-0.41c-1.04,0-1.92,0.67-2.25,1.6h1.45c0.44,0,0.8,0.36,0.8,0.8c0,0.44-0.36,0.8-0.8,0.8h-13.6v7.2
				h43.2v-7.2H34.319c-0.37,1.82-1.99,3.2-3.92,3.2c-0.44,0-0.8-0.36-0.8-0.8s0.359-0.8,0.8-0.8c1.319,0,2.399-1.08,2.399-2.4
				c0,0.44,0.36,0.8,0.801,0.8c0.439,0,0.8-0.36,0.8-0.8c0-0.28-0.03-0.54-0.08-0.8h12.08v42.4h-46.4v-42.4h12.08
				C12.449,1.371,14.069,0.001,15.999,0.001z"/>
			<path d="M34.219,2.811c0.04,0.13,0.07,0.26,0.101,0.39C34.289,3.071,34.259,2.941,34.219,2.811z"/>
			<path d="M32.629,0.691c-0.21-0.15-0.439-0.27-0.68-0.37C32.189,0.411,32.419,0.541,32.629,0.691z"/>
			<path d="M23.209,0.811c0,0-0.01-0.01-0.01,0.01c-0.26-0.21-0.54-0.38-0.85-0.5C22.659,0.441,22.949,0.611,23.209,0.811z"/>
			<path d="M28.009,0.811c0.15,0.11,0.29,0.24,0.421,0.37c-0.131-0.13-0.28-0.26-0.431-0.36C27.999,0.801,28.009,0.811,28.009,0.811
				z"/>
			<path d="M20.799,6.401c1.33,0,2.4-1.08,2.4-2.4c0,0.44,0.36,0.8,0.8,0.8c0.44,0,0.8-0.36,0.8-0.8c0,2.21-1.8,4-4,4
				c-0.44,0-0.8-0.36-0.8-0.8S20.359,6.401,20.799,6.401z"/>
			<path d="M18.399,4.001c0-0.83,0.42-1.56,1.06-1.99c0.35,0.58,0.54,1.26,0.54,1.99c0,2.21-1.79,4-4,4c-0.44,0-0.8-0.36-0.8-0.8
				s0.36-0.8,0.8-0.8C17.319,6.401,18.399,5.321,18.399,4.001z"/>
			<path d="M33.229,1.181c0.09,0.09,0.18,0.18,0.26,0.28c0.08,0.1,0.15,0.2,0.229,0.31c0.07,0.11,0.141,0.22,0.2,0.33
				c0.12,0.22,0.221,0.46,0.3,0.71c0.04,0.13,0.07,0.26,0.101,0.39c0.05,0.26,0.08,0.52,0.08,0.8c0,0.44-0.36,0.8-0.8,0.8
				c-0.44,0-0.801-0.36-0.801-0.8c0-1.32-1.08-2.4-2.399-2.4c-0.44,0-0.8-0.36-0.8-0.8s0.359-0.8,0.8-0.8
				c0.12,0,0.24,0.01,0.359,0.02c0.07,0,0.141,0.01,0.21,0.03c0.24,0.02,0.471,0.08,0.681,0.15c0.1,0.04,0.2,0.07,0.3,0.12
				c0.24,0.1,0.47,0.22,0.68,0.37c0.2,0.13,0.38,0.28,0.551,0.44C33.199,1.151,33.209,1.161,33.229,1.181z"/>
			<path d="M33.179,1.131c0.02,0.02,0.039,0.04,0.05,0.05C33.209,1.161,33.199,1.151,33.179,1.131z"/>
			<path d="M26.939,2.011c0.26-0.47,0.63-0.88,1.06-1.19c0.15,0.1,0.3,0.23,0.431,0.36c0.09,0.09,0.18,0.18,0.26,0.28
				c0.14,0.17,0.27,0.35,0.37,0.55c-0.641,0.43-1.061,1.16-1.061,1.99C27.999,3.181,27.579,2.441,26.939,2.011z"/>
			<path d="M33.919,2.101c-0.06-0.11-0.13-0.22-0.2-0.33C33.799,1.881,33.869,1.991,33.919,2.101z"/>
			<path d="M31.949,0.321c-0.1-0.05-0.2-0.08-0.3-0.12C31.749,0.231,31.849,0.271,31.949,0.321z"/>
			<path d="M25.599,6.401c1.319,0,2.399-1.08,2.399-2.4c0,0.44,0.36,0.8,0.8,0.8c0.44,0,0.801-0.36,0.801-0.8c0,2.21-1.79,4-4,4
				c-0.44,0-0.801-0.36-0.801-0.8S25.159,6.401,25.599,6.401z"/>
			<path d="M23.199,4.001c0-0.83,0.42-1.56,1.06-1.99c0.091,0.14,0.16,0.28,0.221,0.44c0.21,0.47,0.319,1,0.319,1.55
				c0,0.44-0.359,0.8-0.8,0.8C23.559,4.801,23.199,4.441,23.199,4.001z"/>
			<path d="M24.259,2.011c-0.64,0.43-1.06,1.16-1.06,1.99c0-0.82-0.42-1.56-1.06-1.99c0.26-0.47,0.63-0.88,1.06-1.19
				c0.15,0.1,0.29,0.22,0.42,0.35c0.01,0,0.01,0.01,0.01,0.01C23.879,1.431,24.089,1.701,24.259,2.011z"/>
			<path d="M32.629,0.691c0.2,0.13,0.391,0.27,0.551,0.44C33.009,0.971,32.829,0.821,32.629,0.691z"/>
			<path d="M23.209,0.811c0.15,0.11,0.29,0.23,0.41,0.36c-0.13-0.13-0.27-0.25-0.42-0.35C23.199,0.801,23.209,0.811,23.209,0.811z"
				/>
			<path d="M22.139,2.011c-0.38-0.26-0.84-0.41-1.34-0.41c-0.44,0-0.8-0.36-0.8-0.8s0.36-0.8,0.8-0.8c0.55,0,1.08,0.11,1.55,0.32
				c0.31,0.12,0.59,0.29,0.85,0.5C22.769,1.131,22.399,1.541,22.139,2.011z"/>
			<path d="M33.919,2.101c0.12,0.23,0.221,0.47,0.3,0.71C34.139,2.561,34.039,2.321,33.919,2.101z"/>
			<path d="M33.719,1.771c-0.079-0.11-0.149-0.21-0.229-0.31C33.579,1.561,33.649,1.661,33.719,1.771z"/>
			<path d="M29.059,2.011c0.35,0.58,0.54,1.26,0.54,1.99c0,0.44-0.36,0.8-0.801,0.8c-0.439,0-0.8-0.36-0.8-0.8
				C27.999,3.171,28.419,2.441,29.059,2.011z"/>
			<path d="M27.999,0.821c-0.43,0.31-0.8,0.72-1.06,1.19c-0.38-0.26-0.84-0.41-1.34-0.41c-0.44,0-0.801-0.36-0.801-0.8
				s0.36-0.8,0.801-0.8c0.55,0,1.08,0.11,1.55,0.32C27.459,0.441,27.739,0.611,27.999,0.821z"/>
			<path d="M33.229,1.181c0.1,0.09,0.18,0.19,0.26,0.28C33.409,1.361,33.319,1.271,33.229,1.181z"/>
			<path fill="#FFFFFF" d="M44.799,13.601v30.4h-43.2v-30.4H44.799z M40.799,19.201c0-0.44-0.359-0.8-0.8-0.8
				c-0.439,0-0.8,0.36-0.8,0.8s0.36,0.8,0.8,0.8C40.439,20.001,40.799,19.641,40.799,19.201z M40.799,25.601
				c0-0.439-0.359-0.8-0.8-0.8c-0.439,0-0.8,0.36-0.8,0.8c0,0.44,0.36,0.8,0.8,0.8C40.439,26.401,40.799,26.041,40.799,25.601z
				 M40.799,31.201c0-0.44-0.359-0.801-0.8-0.801c-0.439,0-0.8,0.36-0.8,0.801c0,0.439,0.36,0.8,0.8,0.8
				C40.439,32.001,40.799,31.641,40.799,31.201z M35.199,19.201c0-0.44-0.36-0.8-0.8-0.8c-0.44,0-0.8,0.36-0.8,0.8
				s0.359,0.8,0.8,0.8C34.839,20.001,35.199,19.641,35.199,19.201z M35.199,25.601c0-0.439-0.36-0.8-0.8-0.8
				c-0.44,0-0.8,0.36-0.8,0.8c0,0.44,0.359,0.8,0.8,0.8C34.839,26.401,35.199,26.041,35.199,25.601z M35.199,31.201
				c0-0.44-0.36-0.801-0.8-0.801c-0.44,0-0.8,0.36-0.8,0.801c0,0.439,0.359,0.8,0.8,0.8C34.839,32.001,35.199,31.641,35.199,31.201z
				 M29.599,19.201c0-0.44-0.36-0.8-0.801-0.8c-0.439,0-0.8,0.36-0.8,0.8s0.36,0.8,0.8,0.8
				C29.239,20.001,29.599,19.641,29.599,19.201z M29.599,25.601c0-0.439-0.36-0.8-0.801-0.8c-0.439,0-0.8,0.36-0.8,0.8
				c0,0.44,0.36,0.8,0.8,0.8C29.239,26.401,29.599,26.041,29.599,25.601z M29.599,31.201c0-0.44-0.36-0.801-0.801-0.801
				c-0.439,0-0.8,0.36-0.8,0.801c0,0.439,0.36,0.8,0.8,0.8C29.239,32.001,29.599,31.641,29.599,31.201z M29.599,37.601
				c0-0.439-0.36-0.8-0.801-0.8c-0.439,0-0.8,0.36-0.8,0.8c0,0.44,0.36,0.8,0.8,0.8C29.239,38.401,29.599,38.041,29.599,37.601z
				 M23.999,19.201c0-0.44-0.36-0.8-0.8-0.8s-0.8,0.36-0.8,0.8s0.36,0.8,0.8,0.8S23.999,19.641,23.999,19.201z M23.999,25.601
				c0-0.439-0.36-0.8-0.8-0.8s-0.8,0.36-0.8,0.8c0,0.44,0.36,0.8,0.8,0.8S23.999,26.041,23.999,25.601z M23.999,31.201
				c0-0.44-0.36-0.801-0.8-0.801s-0.8,0.36-0.8,0.801c0,0.439,0.36,0.8,0.8,0.8S23.999,31.641,23.999,31.201z M23.999,37.601
				c0-0.439-0.36-0.8-0.8-0.8s-0.8,0.36-0.8,0.8c0,0.44,0.36,0.8,0.8,0.8S23.999,38.041,23.999,37.601z M18.399,19.201
				c0-0.44-0.36-0.8-0.8-0.8s-0.8,0.36-0.8,0.8s0.36,0.8,0.8,0.8S18.399,19.641,18.399,19.201z M18.399,25.601
				c0-0.439-0.36-0.8-0.8-0.8s-0.8,0.36-0.8,0.8c0,0.44,0.36,0.8,0.8,0.8S18.399,26.041,18.399,25.601z M18.399,31.201
				c0-0.44-0.36-0.801-0.8-0.801s-0.8,0.36-0.8,0.801c0,0.439,0.36,0.8,0.8,0.8S18.399,31.641,18.399,31.201z M18.399,37.601
				c0-0.439-0.36-0.8-0.8-0.8s-0.8,0.36-0.8,0.8c0,0.44,0.36,0.8,0.8,0.8S18.399,38.041,18.399,37.601z M12.799,25.601
				c0-0.439-0.36-0.8-0.8-0.8c-0.44,0-0.8,0.36-0.8,0.8c0,0.44,0.36,0.8,0.8,0.8C12.439,26.401,12.799,26.041,12.799,25.601z
				 M12.799,31.201c0-0.44-0.36-0.801-0.8-0.801c-0.44,0-0.8,0.36-0.8,0.801c0,0.439,0.36,0.8,0.8,0.8
				C12.439,32.001,12.799,31.641,12.799,31.201z M12.799,37.601c0-0.439-0.36-0.8-0.8-0.8c-0.44,0-0.8,0.36-0.8,0.8
				c0,0.44,0.36,0.8,0.8,0.8C12.439,38.401,12.799,38.041,12.799,37.601z M7.199,25.601c0-0.439-0.36-0.8-0.8-0.8
				c-0.44,0-0.8,0.36-0.8,0.8c0,0.44,0.36,0.8,0.8,0.8C6.849,26.401,7.199,26.041,7.199,25.601z M7.199,31.201
				c0-0.44-0.36-0.801-0.8-0.801c-0.44,0-0.8,0.36-0.8,0.801c0,0.439,0.36,0.8,0.8,0.8C6.839,32.001,7.199,31.641,7.199,31.201z
				 M7.199,37.601c0-0.439-0.36-0.8-0.8-0.8c-0.44,0-0.8,0.36-0.8,0.8c0,0.44,0.36,0.8,0.8,0.8
				C6.849,38.401,7.199,38.041,7.199,37.601z"/>
			<circle cx="39.999" cy="19.201" r="0.8"/>
			<circle cx="39.999" cy="25.601" r="0.8"/>
			<circle cx="39.999" cy="31.201" r="0.8"/>
			<circle cx="34.399" cy="19.201" r="0.8"/>
			<circle cx="34.399" cy="25.601" r="0.8"/>
			<circle cx="34.399" cy="31.201" r="0.8"/>
			<path d="M28.799,18.401c0.44,0,0.801,0.36,0.801,0.8s-0.36,0.8-0.801,0.8c-0.439,0-0.8-0.36-0.8-0.8S28.359,18.401,28.799,18.401
				z"/>
			<path d="M28.799,24.801c0.44,0,0.801,0.36,0.801,0.8c0,0.44-0.36,0.8-0.801,0.8c-0.439,0-0.8-0.359-0.8-0.8
				C27.999,25.161,28.359,24.801,28.799,24.801z"/>
			<path d="M28.799,30.401c0.44,0,0.801,0.36,0.801,0.801c0,0.439-0.36,0.8-0.801,0.8c-0.439,0-0.8-0.36-0.8-0.8
				C27.999,30.761,28.359,30.401,28.799,30.401z"/>
			<path d="M28.799,36.801c0.44,0,0.801,0.36,0.801,0.8c0,0.44-0.36,0.8-0.801,0.8c-0.439,0-0.8-0.359-0.8-0.8
				C27.999,37.161,28.359,36.801,28.799,36.801z"/>
			<circle cx="23.199" cy="19.201" r="0.8"/>
			<circle cx="23.199" cy="25.601" r="0.8"/>
			<circle cx="23.199" cy="31.201" r="0.8"/>
			<circle cx="23.199" cy="37.601" r="0.8"/>
			<circle cx="17.599" cy="19.201" r="0.8"/>
			<circle cx="17.599" cy="25.601" r="0.8"/>
			<circle cx="17.599" cy="31.201" r="0.8"/>
			<circle cx="17.599" cy="37.601" r="0.8"/>
			<circle cx="11.999" cy="25.601" r="0.8"/>
			<circle cx="11.999" cy="31.201" r="0.8"/>
			<circle cx="11.999" cy="37.601" r="0.8"/>
			<path d="M6.399,24.801c0.44,0,0.8,0.36,0.8,0.8c0,0.44-0.35,0.8-0.8,0.8c-0.44,0-0.8-0.359-0.8-0.8
				C5.599,25.161,5.959,24.801,6.399,24.801z"/>
			<circle cx="6.399" cy="31.201" r="0.8"/>
			<path d="M6.399,36.801c0.44,0,0.8,0.36,0.8,0.8c0,0.44-0.35,0.8-0.8,0.8c-0.44,0-0.8-0.359-0.8-0.8
				C5.599,37.161,5.959,36.801,6.399,36.801z"/>
		</g>
		<g>
		</g>
	</g>
</g>
</svg>
