<?xml version="1.0" encoding="utf-8"?>
<!-- Generator: Adobe Illustrator 16.0.0, SVG Export Plug-In . SVG Version: 6.00 Build 0)  -->
<!DOCTYPE svg PUBLIC "-//W3C//DTD SVG 1.1//EN" "http://www.w3.org/Graphics/SVG/1.1/DTD/svg11.dtd">
<svg version="1.1" id="Capa_1" xmlns="http://www.w3.org/2000/svg" xmlns:xlink="http://www.w3.org/1999/xlink" x="0px" y="0px"
	 width="44px" height="44px" viewBox="0 0 44 44" enable-background="new 0 0 44 44" xml:space="preserve">
<g id="XMLID_1_">
	<g>
		<path fill="#FFFFFF" d="M-18.32,160.68c0.96,0,1.74,0.78,1.74,1.74s-0.78,1.74-1.74,1.74c-0.95,0-1.73-0.78-1.73-1.74
			S-19.27,160.68-18.32,160.68z"/>
		<path fill="#FFFFFF" d="M-28.69,174.18c-0.06,0.19-0.09,0.38-0.09,0.561c0,0.45,0.17,0.89,0.48,1.21
			c0.31,0.319,0.74,0.51,1.19,0.55l2.53,0.19c0.07,0.01,0.13,0.01,0.19,0.01c0.47,0,0.91-0.12,1.33-0.29
			c0.42-0.19,0.8-0.43,1.12-0.78l1.14-1.28c0.52,0.641,0.95,1.12,1.19,1.391l1.29,1.439l1.3-1.439c1.23-1.38,7.39-8.46,7.39-12.74
			c0-0.84-0.13-1.66-0.35-2.43c0.02,0,0.04,0,0.07,0c0.22,0,0.48,0.029,0.72,0.08c0.24,0.06,0.46,0.14,0.57,0.199l1.85,1.03
			c0.02,0.37,0.03,0.74,0.03,1.12c0,11.17-9.09,20.26-20.26,20.26c-1.71,0-3.36-0.21-4.95-0.609l0.91-3.15
			c0.07-0.21,0.09-0.43,0.09-0.64c0-0.4-0.09-0.79-0.26-1.15c-0.16-0.36-0.4-0.69-0.74-0.95l-1.13-0.85
			c-0.07-0.05-0.11-0.141-0.11-0.23c0-0.06,0.01-0.12,0.05-0.17l3.08-4.1c0.06-0.09,0.19-0.16,0.33-0.15
			c0.08,0,0.14,0.021,0.19,0.05l1.02,0.631c0.06,0.04,0.14,0.119,0.2,0.239c0.06,0.11,0.09,0.261,0.09,0.36
			c0,0.06-0.01,0.11-0.02,0.14L-28.69,174.18z"/>
		<path fill="#FFFFFF" d="M-18.32,156.05c3.84,0,6.95,3.11,6.95,6.95s-6.95,11.58-6.95,11.58s-6.94-7.74-6.94-11.58
			S-22.15,156.05-18.32,156.05z M-14.84,162.42c0-1.92-1.56-3.47-3.48-3.47c-1.91,0-3.47,1.55-3.47,3.47s1.56,3.47,3.47,3.47
			C-16.4,165.89-14.84,164.34-14.84,162.42z"/>
		<path fill="#FFFFFF" d="M-7,159.77l-0.77-0.43c-0.32-0.18-0.67-0.3-1.03-0.38c-0.37-0.08-0.74-0.13-1.11-0.13
			c-0.2,0-0.39,0.01-0.59,0.05l-0.16,0.03c-1.46-2.73-4.35-4.59-7.66-4.59c-4.78,0-8.68,3.89-8.68,8.68c0,2.93,2.87,7.16,5.09,9.98
			l-1.33,1.489c-0.08,0.101-0.28,0.24-0.51,0.34c-0.23,0.101-0.49,0.15-0.64,0.15h-0.05l-2.54-0.19l-0.06-0.02v-0.01l0.01-0.05
			v-0.011l0.45-1.5c0.06-0.22,0.09-0.43,0.09-0.64c0-0.41-0.1-0.8-0.29-1.16c-0.18-0.35-0.45-0.68-0.82-0.91l-1.02-0.64
			c-0.34-0.21-0.73-0.311-1.11-0.311c-0.65,0-1.29,0.28-1.72,0.841l-3.08,4.109c-0.27,0.36-0.4,0.79-0.4,1.21
			c0,0.61,0.28,1.23,0.81,1.62l1.12,0.851c0.07,0.04,0.16,0.149,0.22,0.29c0.06,0.13,0.1,0.29,0.1,0.42c0,0.06-0.01,0.12-0.03,0.159
			l-0.9,3.131c-4.2-1.45-7.78-4.25-10.22-7.87c0.08-0.101,0.17-0.2,0.26-0.311c0.34-0.43,1.05-1.17,1.47-1.55l0.71-0.64
			c0.34-0.3,0.62-0.681,0.85-1.09c0.24-0.41,0.42-0.841,0.52-1.28l0.16-0.76c0.03-0.181,0.05-0.351,0.05-0.53
			c0-0.4-0.08-0.8-0.22-1.18c-0.14-0.37-0.33-0.73-0.62-1.03l-0.79-0.83l-0.03-0.04l0.04-0.03l1.41-0.83
			c0.09-0.06,0.29-0.12,0.5-0.12c0.24,0,0.47,0.07,0.56,0.141l1.4,0.899c0.49,0.311,1.02,0.42,1.56,0.42c0.44,0,0.89-0.079,1.31-0.3
			l1.72-0.91c0.44-0.239,0.78-0.569,1.08-0.949c0.29-0.391,0.53-0.811,0.64-1.29l0.28-1.221c0.06-0.279,0.08-0.56,0.09-0.84
			c-0.01-0.319-0.04-0.649-0.1-0.97c-0.05-0.32-0.14-0.63-0.27-0.92l-0.98-2.14l-0.03-0.11c0-0.12,0.07-0.23,0.17-0.271l2.32-1.069
			c0.46-0.221,0.83-0.561,1.13-0.94c0.29-0.38,0.53-0.82,0.62-1.32l0.34-1.869c0.04-0.181,0.05-0.36,0.05-0.53
			c0-0.39-0.06-0.78-0.17-1.16c-0.11-0.37-0.26-0.729-0.49-1.05l-1.32-1.86c-0.07-0.09-0.15-0.34-0.15-0.58
			c0-0.189,0.05-0.359,0.1-0.439l1.09-1.971c0.52-0.05,1.04-0.069,1.57-0.069C-16.93,142.74-8.55,150.12-7,159.77z"/>
		<path fill="#FFFFFF" d="M-29.37,149.87c0,0.09-0.01,0.16-0.02,0.22h0.01l-0.35,1.87c-0.02,0.12-0.12,0.36-0.29,0.57
			c-0.15,0.2-0.36,0.37-0.48,0.42l-2.32,1.069c-0.74,0.351-1.18,1.08-1.18,1.851c0,0.28,0.06,0.57,0.19,0.84l0.98,2.13
			c0.05,0.11,0.11,0.3,0.15,0.51s0.06,0.45,0.06,0.66c0,0.181-0.02,0.351-0.05,0.46l-0.01,0.05l-0.26,1.16
			c-0.03,0.141-0.16,0.4-0.33,0.62s-0.39,0.41-0.52,0.48l-1.71,0.91c-0.09,0.05-0.29,0.1-0.5,0.1c-0.26,0-0.52-0.08-0.62-0.15
			l-1.4-0.899c-0.47-0.3-0.99-0.41-1.5-0.41c-0.47,0-0.95,0.1-1.39,0.35l-1.4,0.83c-0.27,0.16-0.5,0.38-0.66,0.65
			c-0.16,0.26-0.24,0.57-0.24,0.88c-0.01,0.46,0.19,0.91,0.52,1.25l0.78,0.82c0.08,0.069,0.18,0.239,0.25,0.43
			c0.07,0.2,0.11,0.42,0.11,0.58c0,0.07-0.01,0.14-0.01,0.18l-0.16,0.75c-0.04,0.181-0.16,0.49-0.32,0.78
			c-0.17,0.28-0.37,0.54-0.51,0.66l-0.71,0.64c-0.47,0.43-1.09,1.061-1.52,1.58c-1.58-2.89-2.48-6.19-2.48-9.71
			c0-2.71,0.54-5.31,1.51-7.67c1.27,1.729,2.54,3.14,3,3.63l1.28,1.39l1.27-1.39c1.05-1.13,6.25-6.97,6.25-10.58
			c0-1.45-0.43-2.8-1.17-3.939c1.4-0.61,2.87-1.07,4.41-1.36l-0.47,0.85c-0.23,0.41-0.31,0.851-0.32,1.29
			c0.01,0.55,0.14,1.101,0.48,1.59l1.32,1.851c0.07,0.1,0.17,0.31,0.23,0.53C-29.4,149.42-29.37,149.67-29.37,149.87z"/>
		<path fill="#FFFFFF" d="M-41.47,142.74c3.19,0,5.79,2.52,5.79,5.64s-5.79,9.41-5.79,9.41s-5.79-6.29-5.79-9.41
			S-44.67,142.74-41.47,142.74z M-38.43,147.95c0-1.601-1.3-2.9-2.9-2.9s-2.89,1.3-2.89,2.9c0,1.6,1.29,2.89,2.89,2.89
			S-38.43,149.55-38.43,147.95z"/>
		<path fill="#FFFFFF" d="M-41.33,146.79c0.64,0,1.16,0.52,1.16,1.16c0,0.64-0.52,1.149-1.16,1.149
			c-0.64,0.011-1.16-0.51-1.16-1.149C-42.49,147.31-41.97,146.79-41.33,146.79z"/>
		<path d="M-27,141c12.15,0,22,9.85,22,22s-9.85,22-22,22s-22-9.85-22-22c0-3.35,0.76-6.52,2.09-9.36
			c-1.15-1.8-2.09-3.729-2.09-5.26c0-4.07,3.38-7.38,7.53-7.38c2.01,0,3.84,0.79,5.2,2.06C-33.45,141.74-30.32,141-27,141z
			 M-6.74,163c0-0.38-0.01-0.75-0.03-1.12l-1.85-1.03c-0.11-0.06-0.33-0.14-0.57-0.199c-0.24-0.051-0.5-0.08-0.72-0.08
			c-0.03,0-0.05,0-0.07,0c0.22,0.77,0.35,1.59,0.35,2.43c0,4.28-6.16,11.36-7.39,12.74l-1.3,1.439l-1.29-1.439
			c-0.24-0.271-0.67-0.75-1.19-1.391l-1.14,1.28c-0.32,0.351-0.7,0.59-1.12,0.78c-0.42,0.17-0.86,0.29-1.33,0.29
			c-0.06,0-0.12,0-0.19-0.01l-2.53-0.19c-0.45-0.04-0.88-0.23-1.19-0.55c-0.31-0.32-0.48-0.76-0.48-1.21
			c0-0.181,0.03-0.37,0.09-0.561l0.44-1.5c0.01-0.029,0.02-0.08,0.02-0.14c0-0.1-0.03-0.25-0.09-0.36
			c-0.06-0.12-0.14-0.199-0.2-0.239l-1.02-0.631c-0.05-0.029-0.11-0.05-0.19-0.05c-0.14-0.01-0.27,0.061-0.33,0.15l-3.08,4.1
			c-0.04,0.05-0.05,0.11-0.05,0.17c0,0.09,0.04,0.181,0.11,0.23l1.13,0.85c0.34,0.26,0.58,0.59,0.74,0.95
			c0.17,0.36,0.26,0.75,0.26,1.15c0,0.21-0.02,0.43-0.09,0.64l-0.91,3.15c1.59,0.399,3.24,0.609,4.95,0.609
			C-15.83,183.26-6.74,174.17-6.74,163z M-7.77,159.34l0.77,0.43c-1.55-9.649-9.93-17.029-20-17.029c-0.53,0-1.05,0.02-1.57,0.069
			l-1.09,1.971c-0.05,0.08-0.1,0.25-0.1,0.439c0,0.24,0.08,0.49,0.15,0.58l1.32,1.86c0.23,0.32,0.38,0.68,0.49,1.05
			c0.11,0.38,0.17,0.771,0.17,1.16c0,0.17-0.01,0.35-0.05,0.53l-0.34,1.869c-0.09,0.5-0.33,0.94-0.62,1.32
			c-0.3,0.38-0.67,0.72-1.13,0.94l-2.32,1.069c-0.1,0.04-0.17,0.15-0.17,0.271l0.03,0.11l0.98,2.14c0.13,0.29,0.22,0.6,0.27,0.92
			c0.06,0.32,0.09,0.65,0.1,0.97c-0.01,0.28-0.03,0.561-0.09,0.84l-0.28,1.221c-0.11,0.479-0.35,0.899-0.64,1.29
			c-0.3,0.38-0.64,0.71-1.08,0.949l-1.72,0.91c-0.42,0.221-0.87,0.3-1.31,0.3c-0.54,0-1.07-0.109-1.56-0.42l-1.4-0.899
			c-0.09-0.07-0.32-0.141-0.56-0.141c-0.21,0-0.41,0.061-0.5,0.12l-1.41,0.83l-0.04,0.03l0.03,0.04l0.79,0.83
			c0.29,0.3,0.48,0.66,0.62,1.03c0.14,0.38,0.22,0.779,0.22,1.18c0,0.18-0.02,0.35-0.05,0.53l-0.16,0.76
			c-0.1,0.439-0.28,0.87-0.52,1.28c-0.23,0.409-0.51,0.79-0.85,1.09l-0.71,0.64c-0.42,0.38-1.13,1.12-1.47,1.55
			c-0.09,0.11-0.18,0.21-0.26,0.311c2.44,3.62,6.02,6.42,10.22,7.87l0.9-3.131c0.02-0.039,0.03-0.1,0.03-0.159
			c0-0.13-0.04-0.29-0.1-0.42c-0.06-0.141-0.15-0.25-0.22-0.29l-1.12-0.851c-0.53-0.39-0.81-1.01-0.81-1.62
			c0-0.42,0.13-0.85,0.4-1.21l3.08-4.109c0.43-0.561,1.07-0.841,1.72-0.841c0.38,0,0.77,0.101,1.11,0.311l1.02,0.64
			c0.37,0.23,0.64,0.561,0.82,0.91c0.19,0.36,0.29,0.75,0.29,1.16c0,0.21-0.03,0.42-0.09,0.64l-0.45,1.5v0.011l-0.01,0.05v0.01
			l0.06,0.02l2.54,0.19h0.05c0.15,0,0.41-0.05,0.64-0.15c0.23-0.1,0.43-0.239,0.51-0.34l1.33-1.489C-24.13,170.16-27,165.93-27,163
			c0-4.79,3.9-8.68,8.68-8.68c3.31,0,6.2,1.859,7.66,4.59l0.16-0.03c0.2-0.04,0.39-0.05,0.59-0.05c0.37,0,0.74,0.05,1.11,0.13
			C-8.44,159.04-8.09,159.16-7.77,159.34z M-11.37,163c0-3.84-3.11-6.95-6.95-6.95c-3.83,0-6.94,3.11-6.94,6.95
			s6.94,11.58,6.94,11.58S-11.37,166.84-11.37,163z M-29.39,150.09c0.01-0.06,0.02-0.13,0.02-0.22c0-0.2-0.03-0.45-0.1-0.68
			c-0.06-0.221-0.16-0.431-0.23-0.53l-1.32-1.851c-0.34-0.489-0.47-1.04-0.48-1.59c0.01-0.439,0.09-0.88,0.32-1.29l0.47-0.85
			c-1.54,0.29-3.01,0.75-4.41,1.36c0.74,1.14,1.17,2.489,1.17,3.939c0,3.61-5.2,9.45-6.25,10.58l-1.27,1.39l-1.28-1.39
			c-0.46-0.49-1.73-1.9-3-3.63c-0.97,2.36-1.51,4.96-1.51,7.67c0,3.52,0.9,6.82,2.48,9.71c0.43-0.52,1.05-1.15,1.52-1.58l0.71-0.64
			c0.14-0.12,0.34-0.38,0.51-0.66c0.16-0.29,0.28-0.6,0.32-0.78l0.16-0.75c0-0.04,0.01-0.109,0.01-0.18c0-0.16-0.04-0.38-0.11-0.58
			c-0.07-0.19-0.17-0.36-0.25-0.43l-0.78-0.82c-0.33-0.34-0.53-0.79-0.52-1.25c0-0.31,0.08-0.62,0.24-0.88
			c0.16-0.271,0.39-0.49,0.66-0.65l1.4-0.83c0.44-0.25,0.92-0.35,1.39-0.35c0.51,0,1.03,0.11,1.5,0.41l1.4,0.899
			c0.1,0.07,0.36,0.15,0.62,0.15c0.21,0,0.41-0.05,0.5-0.1l1.71-0.91c0.13-0.07,0.35-0.261,0.52-0.48s0.3-0.479,0.33-0.62l0.26-1.16
			l0.01-0.05c0.03-0.109,0.05-0.279,0.05-0.46c0-0.21-0.02-0.45-0.06-0.66s-0.1-0.399-0.15-0.51l-0.98-2.13
			c-0.13-0.27-0.19-0.56-0.19-0.84c0-0.771,0.44-1.5,1.18-1.851l2.32-1.069c0.12-0.05,0.33-0.22,0.48-0.42
			c0.17-0.21,0.27-0.45,0.29-0.57l0.35-1.87H-29.39z M-35.68,148.38c0-3.12-2.6-5.64-5.79-5.64c-3.2,0-5.79,2.52-5.79,5.64
			s5.79,9.41,5.79,9.41S-35.68,151.5-35.68,148.38z"/>
		<path d="M-18.32,158.95c1.92,0,3.48,1.55,3.48,3.47s-1.56,3.47-3.48,3.47c-1.91,0-3.47-1.55-3.47-3.47S-20.23,158.95-18.32,158.95
			z M-16.58,162.42c0-0.96-0.78-1.74-1.74-1.74c-0.95,0-1.73,0.78-1.73,1.74s0.78,1.74,1.73,1.74
			C-17.36,164.16-16.58,163.38-16.58,162.42z"/>
		<path d="M-41.33,145.05c1.6,0,2.9,1.3,2.9,2.9c0,1.6-1.3,2.89-2.9,2.89s-2.89-1.29-2.89-2.89
			C-44.22,146.35-42.93,145.05-41.33,145.05z M-40.17,147.95c0-0.641-0.52-1.16-1.16-1.16s-1.16,0.52-1.16,1.16
			c0,0.64,0.52,1.16,1.16,1.149C-40.69,149.1-40.17,148.59-40.17,147.95z"/>
	</g>
	<g>
	</g>
</g>
</svg>
