<?xml version="1.0" encoding="utf-8"?>
<!-- Generator: Adobe Illustrator 16.0.0, SVG Export Plug-In . SVG Version: 6.00 Build 0)  -->
<!DOCTYPE svg PUBLIC "-//W3C//DTD SVG 1.1//EN" "http://www.w3.org/Graphics/SVG/1.1/DTD/svg11.dtd">
<svg version="1.1" id="Capa_1" xmlns="http://www.w3.org/2000/svg" xmlns:xlink="http://www.w3.org/1999/xlink" x="0px" y="0px"
	 width="44px" height="44px" viewBox="0 0 44 44" enable-background="new 0 0 44 44" xml:space="preserve">
<g id="XMLID_1_">
	<g>
		<path fill="#FFFFFF" d="M30.68,19.68c0.96,0,1.74,0.78,1.74,1.74s-0.78,1.74-1.74,1.74c-0.95,0-1.73-0.78-1.73-1.74
			S29.729,19.68,30.68,19.68z"/>
		<path fill="#FFFFFF" d="M20.31,33.18c-0.06,0.19-0.09,0.381-0.09,0.562c0,0.45,0.17,0.89,0.48,1.21
			c0.31,0.318,0.74,0.51,1.19,0.55l2.53,0.19c0.07,0.01,0.129,0.01,0.189,0.01c0.471,0,0.91-0.12,1.33-0.29
			c0.42-0.19,0.801-0.431,1.12-0.78l1.14-1.279c0.52,0.641,0.95,1.119,1.19,1.391l1.29,1.439l1.3-1.439
			c1.229-1.381,7.39-8.46,7.39-12.74c0-0.84-0.129-1.66-0.35-2.43c0.02,0,0.04,0,0.07,0c0.22,0,0.479,0.029,0.72,0.08
			c0.239,0.06,0.46,0.14,0.569,0.199l1.851,1.029c0.021,0.37,0.03,0.74,0.03,1.12c0,11.17-9.09,20.26-20.26,20.26
			c-1.71,0-3.36-0.21-4.95-0.608l0.91-3.15c0.07-0.21,0.09-0.43,0.09-0.64c0-0.4-0.09-0.79-0.26-1.15c-0.16-0.36-0.4-0.69-0.74-0.95
			l-1.13-0.85c-0.07-0.05-0.11-0.141-0.11-0.23c0-0.06,0.01-0.119,0.05-0.17l3.08-4.1c0.06-0.09,0.19-0.16,0.33-0.15
			c0.08,0,0.14,0.021,0.19,0.051l1.02,0.631c0.06,0.039,0.14,0.119,0.2,0.238c0.06,0.11,0.09,0.262,0.09,0.36
			c0,0.06-0.01,0.11-0.02,0.14L20.31,33.18z"/>
		<path fill="#FFFFFF" d="M30.68,15.05c3.84,0,6.949,3.11,6.949,6.95S30.68,33.58,30.68,33.58S23.74,25.84,23.74,22
			S26.85,15.05,30.68,15.05z M34.16,21.42c0-1.92-1.561-3.47-3.48-3.47c-1.91,0-3.471,1.55-3.471,3.47s1.561,3.471,3.471,3.471
			C32.6,24.891,34.16,23.34,34.16,21.42z"/>
		<path fill="#FFFFFF" d="M42,18.77l-0.771-0.43c-0.319-0.18-0.67-0.3-1.03-0.38c-0.369-0.08-0.74-0.13-1.109-0.13
			c-0.2,0-0.391,0.01-0.59,0.05l-0.16,0.03c-1.461-2.73-4.35-4.59-7.66-4.59c-4.78,0-8.68,3.89-8.68,8.68
			c0,2.93,2.87,7.16,5.09,9.98l-1.33,1.488c-0.08,0.102-0.28,0.24-0.51,0.34c-0.23,0.102-0.49,0.15-0.641,0.15h-0.05l-2.54-0.189
			l-0.06-0.021v-0.01l0.01-0.05v-0.012l0.45-1.5c0.06-0.22,0.09-0.43,0.09-0.64c0-0.41-0.1-0.8-0.291-1.16
			c-0.18-0.351-0.45-0.68-0.82-0.91l-1.02-0.64c-0.34-0.21-0.73-0.311-1.11-0.311c-0.65,0-1.29,0.279-1.72,0.84l-3.08,4.109
			c-0.27,0.36-0.4,0.79-0.4,1.21c0,0.61,0.28,1.23,0.81,1.62L16,37.148c0.07,0.039,0.16,0.148,0.22,0.289
			c0.061,0.131,0.1,0.291,0.1,0.42c0,0.061-0.01,0.121-0.03,0.16l-0.9,3.131c-4.2-1.451-7.78-4.25-10.22-7.871
			c0.08-0.101,0.17-0.199,0.26-0.311c0.34-0.43,1.05-1.17,1.47-1.55l0.71-0.64c0.34-0.301,0.62-0.682,0.85-1.09
			c0.24-0.41,0.42-0.842,0.52-1.28l0.16-0.761c0.03-0.181,0.05-0.351,0.05-0.529c0-0.4-0.08-0.801-0.22-1.18
			c-0.14-0.371-0.33-0.73-0.62-1.03l-0.79-0.83l-0.03-0.04l0.04-0.03l1.41-0.83c0.09-0.06,0.29-0.12,0.5-0.12
			c0.24,0,0.47,0.07,0.56,0.142l1.4,0.899c0.49,0.311,1.02,0.42,1.56,0.42c0.44,0,0.89-0.08,1.31-0.301l1.72-0.91
			c0.439-0.238,0.78-0.568,1.08-0.949c0.29-0.391,0.53-0.811,0.64-1.289l0.28-1.221c0.06-0.279,0.08-0.561,0.09-0.841
			c-0.01-0.319-0.04-0.649-0.1-0.97c-0.05-0.32-0.14-0.63-0.27-0.92l-0.98-2.141l-0.03-0.109c0-0.12,0.07-0.23,0.17-0.271
			l2.32-1.068c0.46-0.221,0.83-0.562,1.13-0.94c0.29-0.38,0.53-0.819,0.62-1.319l0.34-1.869c0.04-0.182,0.05-0.36,0.05-0.53
			c0-0.39-0.06-0.78-0.17-1.16c-0.11-0.37-0.26-0.729-0.49-1.05l-1.32-1.86c-0.07-0.09-0.15-0.34-0.15-0.58
			c0-0.188,0.05-0.358,0.1-0.438l1.09-1.971c0.52-0.051,1.04-0.069,1.57-0.069C32.069,1.74,40.449,9.12,42,18.77z"/>
		<path fill="#FFFFFF" d="M19.629,8.87c0,0.09-0.01,0.16-0.02,0.22h0.01l-0.35,1.87c-0.02,0.12-0.12,0.36-0.29,0.57
			c-0.15,0.2-0.36,0.37-0.48,0.42l-2.32,1.069C15.439,13.37,15,14.1,15,14.87c0,0.28,0.06,0.569,0.19,0.84l0.98,2.13
			c0.05,0.11,0.11,0.301,0.15,0.51c0.04,0.211,0.06,0.45,0.06,0.66c0,0.182-0.02,0.352-0.05,0.46l-0.01,0.05l-0.26,1.16
			c-0.03,0.142-0.16,0.4-0.33,0.62s-0.39,0.41-0.52,0.48l-1.71,0.909c-0.09,0.051-0.29,0.101-0.5,0.101
			c-0.26,0-0.52-0.08-0.62-0.149l-1.4-0.899c-0.47-0.3-0.99-0.41-1.5-0.41c-0.47,0-0.95,0.101-1.39,0.351l-1.4,0.829
			c-0.27,0.16-0.5,0.38-0.66,0.65c-0.16,0.26-0.24,0.569-0.24,0.88c-0.01,0.46,0.19,0.91,0.52,1.25l0.78,0.82
			c0.08,0.068,0.18,0.238,0.25,0.43c0.07,0.2,0.11,0.42,0.11,0.58c0,0.07-0.01,0.14-0.01,0.18l-0.16,0.75
			c-0.04,0.182-0.16,0.49-0.32,0.78c-0.17,0.28-0.37,0.54-0.51,0.66l-0.71,0.64c-0.47,0.43-1.09,1.061-1.521,1.58
			c-1.58-2.89-2.479-6.189-2.479-9.71c0-2.71,0.54-5.31,1.51-7.67c1.27,1.729,2.54,3.14,3,3.63l1.28,1.391l1.27-1.391
			c1.05-1.13,6.25-6.97,6.25-10.58c0-1.449-0.43-2.8-1.17-3.939c1.4-0.609,2.87-1.069,4.41-1.359l-0.47,0.85
			c-0.23,0.41-0.31,0.852-0.32,1.291c0.01,0.549,0.14,1.101,0.48,1.59l1.32,1.851c0.07,0.101,0.17,0.31,0.23,0.53
			C19.6,8.42,19.629,8.67,19.629,8.87z"/>
		<path fill="#FFFFFF" d="M7.53,1.74c3.189,0,5.79,2.52,5.79,5.64s-5.79,9.41-5.79,9.41S1.74,10.5,1.74,7.38S4.33,1.74,7.53,1.74z
			 M10.569,6.95c0-1.601-1.3-2.9-2.9-2.9s-2.89,1.3-2.89,2.9c0,1.6,1.29,2.89,2.89,2.89S10.569,8.55,10.569,6.95z"/>
		<path fill="#FFFFFF" d="M7.669,5.79c0.64,0,1.16,0.521,1.16,1.16S8.31,8.1,7.669,8.1c-0.64,0.01-1.16-0.511-1.16-1.149
			C6.509,6.311,7.03,5.79,7.669,5.79z"/>
		<path d="M22,0c12.15,0,22,9.85,22,22s-9.851,22-22,22S0,34.15,0,22c0-3.35,0.76-6.52,2.09-9.359C0.939,10.84,0,8.911,0,7.38
			C0,3.311,3.379,0,7.53,0c2.01,0,3.84,0.79,5.2,2.061C15.549,0.74,18.68,0,22,0z M42.26,22c0-0.38-0.01-0.75-0.03-1.12l-1.851-1.03
			c-0.109-0.06-0.33-0.14-0.569-0.199c-0.24-0.051-0.5-0.08-0.72-0.08c-0.03,0-0.051,0-0.07,0c0.221,0.771,0.35,1.591,0.35,2.431
			c0,4.28-6.16,11.36-7.39,12.74l-1.3,1.438l-1.29-1.438c-0.24-0.271-0.67-0.75-1.19-1.392l-1.14,1.28
			c-0.319,0.351-0.7,0.59-1.12,0.78c-0.42,0.17-0.859,0.29-1.33,0.29c-0.061,0-0.119,0-0.189-0.011L21.89,35.5
			c-0.45-0.04-0.88-0.23-1.19-0.55c-0.31-0.32-0.48-0.761-0.48-1.21c0-0.182,0.03-0.37,0.09-0.562l0.44-1.5
			c0.01-0.028,0.02-0.079,0.02-0.14c0-0.1-0.03-0.25-0.09-0.36c-0.06-0.12-0.14-0.198-0.2-0.239l-1.02-0.631
			c-0.05-0.029-0.11-0.05-0.19-0.05c-0.14-0.01-0.27,0.062-0.33,0.15l-3.08,4.1c-0.04,0.05-0.05,0.11-0.05,0.17
			c0,0.091,0.04,0.181,0.11,0.23l1.13,0.85c0.34,0.261,0.58,0.591,0.74,0.95c0.17,0.359,0.26,0.75,0.26,1.15
			c0,0.209-0.02,0.43-0.09,0.64l-0.91,3.149c1.59,0.399,3.24,0.609,4.95,0.609C33.17,42.26,42.26,33.17,42.26,22z M41.229,18.34
			L42,18.77C40.449,9.121,32.069,1.741,22,1.741c-0.53,0-1.05,0.02-1.57,0.069l-1.09,1.971c-0.05,0.08-0.1,0.25-0.1,0.438
			c0,0.24,0.08,0.49,0.15,0.58l1.32,1.86c0.23,0.32,0.38,0.68,0.49,1.05c0.11,0.38,0.17,0.771,0.17,1.16c0,0.17-0.01,0.35-0.05,0.53
			l-0.34,1.869c-0.09,0.5-0.33,0.939-0.62,1.319c-0.3,0.38-0.67,0.72-1.13,0.94l-2.32,1.068c-0.1,0.041-0.17,0.15-0.17,0.271
			l0.03,0.109l0.98,2.141c0.13,0.29,0.22,0.6,0.27,0.92c0.06,0.32,0.09,0.65,0.1,0.97c-0.01,0.28-0.03,0.562-0.09,0.841l-0.28,1.221
			c-0.11,0.479-0.35,0.898-0.64,1.289c-0.3,0.381-0.64,0.711-1.08,0.949l-1.72,0.91c-0.42,0.221-0.87,0.301-1.31,0.301
			c-0.54,0-1.07-0.109-1.56-0.42l-1.4-0.899c-0.09-0.07-0.32-0.142-0.56-0.142c-0.21,0-0.41,0.062-0.5,0.12l-1.41,0.83l-0.04,0.03
			l0.03,0.04l0.79,0.83c0.29,0.3,0.48,0.659,0.62,1.03c0.14,0.379,0.22,0.778,0.22,1.18c0,0.18-0.02,0.35-0.05,0.529l-0.16,0.761
			c-0.1,0.438-0.28,0.87-0.52,1.28c-0.23,0.408-0.51,0.789-0.85,1.09l-0.71,0.64c-0.42,0.38-1.13,1.12-1.47,1.55
			c-0.09,0.11-0.18,0.21-0.26,0.311c2.44,3.621,6.02,6.421,10.22,7.871l0.9-3.131c0.02-0.039,0.03-0.101,0.03-0.16
			c0-0.129-0.04-0.289-0.1-0.42c-0.06-0.141-0.15-0.25-0.22-0.289l-1.12-0.852c-0.53-0.39-0.81-1.01-0.81-1.62
			c0-0.42,0.13-0.85,0.4-1.21l3.08-4.109c0.43-0.561,1.07-0.84,1.72-0.84c0.38,0,0.77,0.101,1.11,0.311l1.02,0.64
			c0.37,0.23,0.64,0.562,0.82,0.91c0.19,0.36,0.291,0.75,0.291,1.16c0,0.21-0.03,0.42-0.09,0.64l-0.45,1.5v0.012l-0.01,0.05v0.01
			l0.06,0.021l2.54,0.189h0.05c0.15,0,0.41-0.05,0.641-0.15c0.229-0.1,0.43-0.238,0.51-0.34l1.33-1.488C24.869,29.16,22,24.93,22,22
			c0-4.79,3.9-8.68,8.68-8.68c3.311,0,6.199,1.859,7.66,4.59l0.16-0.03c0.199-0.04,0.39-0.05,0.59-0.05
			c0.369,0,0.74,0.05,1.109,0.13C40.56,18.04,40.91,18.16,41.229,18.34z M37.629,22c0-3.84-3.109-6.95-6.949-6.95
			c-3.83,0-6.939,3.11-6.939,6.95s6.939,11.58,6.939,11.58S37.629,25.84,37.629,22z M19.609,9.09c0.01-0.06,0.02-0.13,0.02-0.22
			c0-0.2-0.03-0.45-0.1-0.681c-0.061-0.221-0.16-0.431-0.23-0.529l-1.32-1.852c-0.34-0.488-0.47-1.039-0.48-1.59
			c0.01-0.438,0.09-0.88,0.32-1.289l0.47-0.851c-1.54,0.29-3.01,0.75-4.41,1.36c0.74,1.14,1.17,2.488,1.17,3.938
			c0,3.61-5.2,9.45-6.25,10.58l-1.27,1.39l-1.28-1.39c-0.46-0.49-1.73-1.899-3-3.63c-0.97,2.359-1.51,4.96-1.51,7.67
			c0,3.52,0.9,6.82,2.479,9.71c0.43-0.521,1.05-1.149,1.521-1.58l0.71-0.64c0.14-0.12,0.34-0.381,0.51-0.66
			c0.16-0.29,0.28-0.6,0.32-0.78l0.16-0.75c0-0.04,0.01-0.108,0.01-0.18c0-0.16-0.04-0.38-0.11-0.58
			c-0.07-0.19-0.17-0.36-0.25-0.431l-0.78-0.819c-0.33-0.34-0.53-0.79-0.52-1.25c0-0.31,0.08-0.62,0.24-0.88
			c0.16-0.271,0.39-0.49,0.66-0.65l1.4-0.83c0.44-0.25,0.92-0.35,1.39-0.35c0.51,0,1.03,0.109,1.5,0.41l1.4,0.898
			c0.1,0.07,0.36,0.15,0.62,0.15c0.21,0,0.41-0.051,0.5-0.1l1.71-0.91c0.13-0.07,0.35-0.262,0.52-0.48s0.3-0.479,0.33-0.62
			l0.26-1.159l0.01-0.051c0.03-0.109,0.05-0.279,0.05-0.46c0-0.21-0.02-0.45-0.06-0.659c-0.04-0.211-0.1-0.399-0.15-0.511
			l-0.98-2.13c-0.13-0.27-0.19-0.561-0.19-0.84c0-0.771,0.44-1.5,1.18-1.852l2.32-1.068c0.12-0.051,0.33-0.221,0.48-0.42
			c0.17-0.211,0.27-0.45,0.29-0.57l0.35-1.87h-0.01V9.09z M13.319,7.38c0-3.12-2.6-5.64-5.79-5.64c-3.2,0-5.79,2.52-5.79,5.64
			s5.79,9.41,5.79,9.41S13.319,10.5,13.319,7.38z"/>
		<path d="M30.68,17.95c1.92,0,3.48,1.55,3.48,3.47s-1.561,3.471-3.48,3.471c-1.91,0-3.471-1.551-3.471-3.471
			S28.77,17.95,30.68,17.95z M32.42,21.42c0-0.96-0.78-1.74-1.74-1.74c-0.95,0-1.73,0.78-1.73,1.74s0.78,1.74,1.73,1.74
			C31.64,23.16,32.42,22.38,32.42,21.42z"/>
		<path d="M7.669,4.05c1.6,0,2.9,1.3,2.9,2.9c0,1.6-1.3,2.89-2.9,2.89S4.78,8.55,4.78,6.95C4.78,5.35,6.069,4.05,7.669,4.05z
			 M8.83,6.95c0-0.642-0.52-1.16-1.16-1.16c-0.64,0-1.16,0.521-1.16,1.16S7.03,8.109,7.669,8.1C8.31,8.1,8.83,7.59,8.83,6.95z"/>
	</g>
</g>
</svg>
