<?xml version="1.0" encoding="utf-8"?>
<!-- Generator: Adobe Illustrator 16.0.0, SVG Export Plug-In . SVG Version: 6.00 Build 0)  -->
<!DOCTYPE svg PUBLIC "-//W3C//DTD SVG 1.1//EN" "http://www.w3.org/Graphics/SVG/1.1/DTD/svg11.dtd">
<svg version="1.1" id="Layer_1" xmlns="http://www.w3.org/2000/svg" xmlns:xlink="http://www.w3.org/1999/xlink" x="0px" y="0px"
	 width="44px" height="44px" viewBox="0 0 44 44" enable-background="new 0 0 44 44" xml:space="preserve">
<g>
	<g id="XMLID_1_">
		<g>
			<path fill="#FFFFFF" d="M12.57,40.08c-0.05-0.03-0.11-0.061-0.17-0.09c-0.41-0.221-0.81-0.45-1.21-0.7
				c-0.11-0.07-0.23-0.15-0.34-0.22c-0.37-0.24-0.73-0.49-1.07-0.75c-0.04-0.03-0.07-0.051-0.11-0.08l0.08-0.04l6.32-3.45
				c1.09-0.6,1.77-1.74,1.77-2.98v-2.88l-0.19-0.22c-0.02-0.02-1.74-2.12-2.4-4.979l-0.07-0.311l-0.27-0.18
				c-0.39-0.25-0.62-0.66-0.62-1.11v-2.84c0-0.37,0.16-0.72,0.44-0.98L15,18.04v-4.46l-0.01-0.1c0-0.02-0.24-1.95,1.12-3.49
				C17.27,8.67,19.25,8,22,8c2.74,0,4.72,0.66,5.88,1.97c1.351,1.53,1.13,3.49,1.13,3.51L29,18.04l0.27,0.24
				c0.28,0.26,0.44,0.6,0.44,0.97v2.84c0,0.57-0.39,1.09-0.94,1.26l-0.399,0.12l-0.13,0.4c-0.471,1.47-1.15,2.82-2,4.02
				c-0.21,0.301-0.41,0.561-0.59,0.771l-0.19,0.22v2.96c0,1.29,0.71,2.45,1.87,3.03l6.77,3.38c0.04,0.02,0.08,0.05,0.131,0.07
				c-0.091,0.06-0.181,0.12-0.261,0.18c-0.279,0.21-0.569,0.41-0.859,0.59c-0.13,0.09-0.261,0.18-0.391,0.26
				c-0.38,0.24-0.77,0.45-1.16,0.67c-0.09,0.04-0.17,0.08-0.26,0.131c-0.899,0.46-1.83,0.859-2.79,1.18
				c-0.029,0.01-0.069,0.02-0.1,0.03c-0.5,0.17-1.01,0.319-1.53,0.439c-0.52,0.13-1.04,0.24-1.57,0.33c-0.02,0-0.029,0-0.04,0.01
				c-0.5,0.07-1,0.13-1.5,0.181c-0.09,0.01-0.18,0.01-0.27,0.02C23,42.38,22.5,42.4,22,42.4c-0.51,0-1.01-0.021-1.52-0.061
				c-0.08-0.01-0.17-0.02-0.26-0.02c-0.51-0.051-1.01-0.11-1.51-0.19l-0.06-0.01c-1.06-0.18-2.1-0.44-3.12-0.78
				c-0.03-0.01-0.06-0.02-0.09-0.03c-0.51-0.17-1-0.359-1.49-0.569c-0.01,0-0.01,0-0.01-0.01C13.48,40.54,13.02,40.32,12.57,40.08z"
				/>
			<path fill="#FFFFFF" d="M42.4,22c0,6.06-2.66,11.51-6.87,15.25c-0.24-0.16-0.471-0.31-0.721-0.43l-6.77-3.391
				c-0.61-0.3-0.99-0.91-0.99-1.59v-2.37c0.16-0.189,0.33-0.41,0.5-0.649c0.88-1.24,1.58-2.62,2.09-4.101
				c1.021-0.479,1.67-1.489,1.67-2.63v-2.84c0-0.69-0.26-1.36-0.71-1.89v-3.74c0.04-0.41,0.19-2.75-1.51-4.69
				C27.62,7.25,25.23,6.4,22,6.4c-3.23,0-5.62,0.85-7.09,2.53c-1.7,1.94-1.55,4.28-1.51,4.69v3.74c-0.46,0.53-0.71,1.2-0.71,1.89
				v2.84c0,0.88,0.4,1.7,1.07,2.26c0.65,2.54,1.98,4.46,2.48,5.11v2.31c0,0.65-0.36,1.261-0.93,1.57l-6.33,3.45
				c-0.2,0.11-0.4,0.24-0.6,0.38C4.22,33.43,1.6,28.02,1.6,22C1.6,10.75,10.75,1.6,22,1.6S42.4,10.75,42.4,22z"/>
			<path d="M18.09,43.64c-1.87-0.34-3.65-0.909-5.32-1.68c-0.04-0.02-0.08-0.03-0.12-0.05c-0.51-0.24-1.01-0.51-1.5-0.79
				c-0.1-0.05-0.2-0.11-0.3-0.17c-0.44-0.26-0.88-0.54-1.31-0.83c-0.13-0.101-0.26-0.19-0.39-0.28c-0.4-0.29-0.8-0.59-1.17-0.899
				c-0.05-0.04-0.1-0.07-0.15-0.11l-0.71-0.6l0.02-0.021C2.75,34.18,0,28.41,0,22C0,9.87,9.87,0,22,0s22,9.87,22,22
				c0,6.44-2.78,12.24-7.21,16.27l0.03,0.021l-0.73,0.61c-0.08,0.06-0.16,0.109-0.229,0.17c-0.341,0.27-0.681,0.54-1.03,0.79
				c-0.15,0.1-0.29,0.21-0.44,0.31c-0.409,0.28-0.84,0.54-1.27,0.8c-0.12,0.07-0.23,0.141-0.351,0.2
				c-0.47,0.271-0.949,0.521-1.449,0.75C31.26,41.95,31.2,41.98,31.14,42c-1.649,0.76-3.409,1.32-5.25,1.65
				c-0.05,0.01-0.1,0.02-0.149,0.029c-0.57,0.09-1.15,0.17-1.74,0.23c-0.08,0-0.15,0-0.22,0.01C23.19,43.97,22.6,44,22,44
				c-0.6,0-1.2-0.03-1.79-0.08c-0.07-0.01-0.15-0.01-0.22-0.02c-0.59-0.051-1.18-0.131-1.76-0.23
				C18.18,43.66,18.14,43.65,18.09,43.64z M16.24,29.46c-0.5-0.65-1.83-2.57-2.48-5.11c-0.67-0.56-1.07-1.38-1.07-2.26v-2.84
				c0-0.69,0.25-1.36,0.71-1.89v-3.74c-0.04-0.41-0.19-2.75,1.51-4.69C16.38,7.25,18.77,6.4,22,6.4c3.23,0,5.62,0.85,7.09,2.53
				c1.7,1.94,1.55,4.28,1.51,4.69v3.74c0.45,0.53,0.71,1.2,0.71,1.89v2.84c0,1.141-0.649,2.15-1.67,2.63
				c-0.51,1.48-1.21,2.86-2.09,4.101c-0.17,0.239-0.34,0.46-0.5,0.649v2.37c0,0.68,0.38,1.29,0.99,1.59l6.77,3.391
				c0.25,0.12,0.48,0.27,0.721,0.43c4.21-3.74,6.87-9.19,6.87-15.25c0-11.25-9.15-20.4-20.4-20.4S1.6,10.75,1.6,22
				c0,6.02,2.62,11.43,6.78,15.17c0.2-0.14,0.4-0.27,0.6-0.38l6.33-3.45c0.57-0.31,0.93-0.92,0.93-1.57V29.46z M13.94,40.73
				c0,0.01,0,0.01,0.01,0.01c0.49,0.21,0.98,0.399,1.49,0.569c0.03,0.011,0.06,0.021,0.09,0.03c1.02,0.34,2.06,0.601,3.12,0.78
				l0.06,0.01c0.5,0.08,1,0.14,1.51,0.19c0.09,0,0.18,0.01,0.26,0.02C20.99,42.38,21.49,42.4,22,42.4c0.5,0,1-0.021,1.5-0.061
				c0.09-0.01,0.18-0.01,0.27-0.02c0.5-0.051,1-0.11,1.5-0.181c0.011-0.01,0.021-0.01,0.04-0.01c0.53-0.09,1.051-0.2,1.57-0.33
				c0.521-0.12,1.03-0.27,1.53-0.439c0.03-0.011,0.07-0.021,0.1-0.03c0.96-0.32,1.891-0.72,2.79-1.18
				c0.09-0.051,0.17-0.091,0.26-0.131c0.391-0.22,0.78-0.43,1.16-0.67c0.13-0.08,0.261-0.17,0.391-0.26
				c0.29-0.18,0.58-0.38,0.859-0.59c0.08-0.06,0.17-0.12,0.261-0.18C34.18,38.3,34.14,38.27,34.1,38.25l-6.77-3.38
				c-1.16-0.58-1.87-1.74-1.87-3.03v-2.96l0.19-0.22c0.18-0.21,0.38-0.47,0.59-0.771c0.85-1.199,1.529-2.55,2-4.02l0.13-0.4
				l0.399-0.12c0.551-0.17,0.94-0.689,0.94-1.26v-2.84c0-0.37-0.16-0.71-0.44-0.97L29,18.04l0.01-4.56c0-0.02,0.221-1.98-1.13-3.51
				C26.72,8.66,24.74,8,22,8c-2.75,0-4.73,0.67-5.89,1.99c-1.36,1.54-1.12,3.47-1.12,3.49l0.01,0.1v4.46l-0.27,0.23
				c-0.28,0.26-0.44,0.61-0.44,0.98v2.84c0,0.45,0.23,0.86,0.62,1.11l0.27,0.18l0.07,0.311c0.66,2.859,2.38,4.96,2.4,4.979
				l0.19,0.22v2.88c0,1.24-0.68,2.381-1.77,2.98L9.75,38.2l-0.08,0.04c0.04,0.029,0.07,0.05,0.11,0.08c0.34,0.26,0.7,0.51,1.07,0.75
				c0.11,0.069,0.23,0.149,0.34,0.22c0.4,0.25,0.8,0.479,1.21,0.7c0.06,0.029,0.12,0.06,0.17,0.09
				C13.02,40.32,13.48,40.54,13.94,40.73z"/>
		</g>
		<g>
		</g>
	</g>
</g>
</svg>
