<?xml version="1.0" encoding="utf-8"?>
<!-- Generator: Adobe Illustrator 16.0.0, SVG Export Plug-In . SVG Version: 6.00 Build 0)  -->
<!DOCTYPE svg PUBLIC "-//W3C//DTD SVG 1.1//EN" "http://www.w3.org/Graphics/SVG/1.1/DTD/svg11.dtd">
<svg version="1.1" id="Layer_1" xmlns="http://www.w3.org/2000/svg" xmlns:xlink="http://www.w3.org/1999/xlink" x="0px" y="0px"
	 width="46.398px" height="45.602px" viewBox="0 0 46.398 45.602" enable-background="new 0 0 46.398 45.602" xml:space="preserve">
<g>
	<path d="M34.32,3.199C33.945,1.375,32.332,0,30.398,0c-0.441,0-0.797,0.359-0.797,0.801c0,0.441,0.355,0.801,0.797,0.801
		c1.324,0,2.402,1.074,2.402,2.398c0,1.324-1.078,2.398-2.402,2.398c-0.441,0-0.797,0.36-0.797,0.801
		C29.602,7.641,29.957,8,30.398,8c1.934,0,3.547-1.375,3.922-3.199h10.48V12H1.602V4.801h13.597C15.641,4.801,16,4.441,16,4
		s-0.359-0.801-0.801-0.801h-1.453C14.078,2.27,14.957,1.602,16,1.602c1.324,0,2.398,1.074,2.398,2.398
		c0,1.324-1.074,2.398-2.398,2.398c-0.441,0-0.801,0.36-0.801,0.801C15.199,7.641,15.559,8,16,8c2.207,0,4-1.793,4-4s-1.793-4-4-4
		c-1.93,0-3.547,1.375-3.918,3.199H0v42.402h46.398V3.199H34.32z M44.801,44H1.602V13.602h43.199V44z M44.801,44"/>
	<path d="M20.801,1.602c1.324,0,2.398,1.074,2.398,2.398c0,1.324-1.074,2.398-2.398,2.398C20.359,6.398,20,6.758,20,7.199
		C20,7.641,20.359,8,20.801,8c2.203,0,4-1.793,4-4s-1.797-4-4-4C20.359,0,20,0.359,20,0.801C20,1.242,20.359,1.602,20.801,1.602
		L20.801,1.602z M20.801,1.602"/>
	<path d="M25.602,1.602C26.922,1.602,28,2.676,28,4c0,1.324-1.078,2.398-2.398,2.398c-0.445,0-0.8,0.36-0.8,0.801
		c0,0.442,0.355,0.801,0.8,0.801c2.203,0,4-1.793,4-4s-1.797-4-4-4c-0.445,0-0.8,0.359-0.8,0.801
		C24.801,1.242,25.156,1.602,25.602,1.602L25.602,1.602z M25.602,1.602"/>
	<path d="M18.398,19.199c0,0.442-0.355,0.801-0.796,0.801c-0.446,0-0.801-0.359-0.801-0.801c0-0.441,0.354-0.801,0.801-0.801
		C18.043,18.398,18.398,18.758,18.398,19.199L18.398,19.199z M18.398,19.199"/>
	<path d="M24,19.199C24,19.641,23.641,20,23.199,20c-0.441,0-0.801-0.359-0.801-0.801c0-0.441,0.36-0.801,0.801-0.801
		C23.641,18.398,24,18.758,24,19.199L24,19.199z M24,19.199"/>
	<path d="M29.602,19.199c0,0.442-0.359,0.801-0.801,0.801S28,19.641,28,19.199c0-0.441,0.359-0.801,0.801-0.801
		S29.602,18.758,29.602,19.199L29.602,19.199z M29.602,19.199"/>
	<path d="M35.199,19.199c0,0.442-0.355,0.801-0.801,0.801c-0.441,0-0.797-0.359-0.797-0.801c0-0.441,0.355-0.801,0.797-0.801
		C34.844,18.398,35.199,18.758,35.199,19.199L35.199,19.199z M35.199,19.199"/>
	<path d="M40.801,19.199C40.801,19.641,40.441,20,40,20s-0.801-0.359-0.801-0.801c0-0.441,0.359-0.801,0.801-0.801
		S40.801,18.758,40.801,19.199L40.801,19.199z M40.801,19.199"/>
	<path d="M7.199,25.602c0,0.441-0.354,0.797-0.801,0.797c-0.441,0-0.796-0.355-0.796-0.797c0-0.445,0.355-0.801,0.796-0.801
		C6.844,24.801,7.199,25.156,7.199,25.602L7.199,25.602z M7.199,25.602"/>
	<path d="M12.801,25.602c0,0.441-0.36,0.797-0.801,0.797s-0.801-0.355-0.801-0.797c0-0.445,0.36-0.801,0.801-0.801
		S12.801,25.156,12.801,25.602L12.801,25.602z M12.801,25.602"/>
	<path d="M18.398,25.602c0,0.441-0.355,0.797-0.796,0.797c-0.446,0-0.801-0.355-0.801-0.797c0-0.445,0.354-0.801,0.801-0.801
		C18.043,24.801,18.398,25.156,18.398,25.602L18.398,25.602z M18.398,25.602"/>
	<path d="M24,25.602c0,0.441-0.359,0.797-0.801,0.797c-0.441,0-0.801-0.355-0.801-0.797c0-0.445,0.36-0.801,0.801-0.801
		C23.641,24.801,24,25.156,24,25.602L24,25.602z M24,25.602"/>
	<path d="M29.602,25.602c0,0.441-0.359,0.797-0.801,0.797S28,26.043,28,25.602c0-0.445,0.359-0.801,0.801-0.801
		S29.602,25.156,29.602,25.602L29.602,25.602z M29.602,25.602"/>
	<path d="M35.199,25.602c0,0.441-0.355,0.797-0.801,0.797c-0.441,0-0.797-0.355-0.797-0.797c0-0.445,0.355-0.801,0.797-0.801
		C34.844,24.801,35.199,25.156,35.199,25.602L35.199,25.602z M35.199,25.602"/>
	<path d="M40.801,25.602c0,0.441-0.359,0.797-0.801,0.797s-0.801-0.355-0.801-0.797c0-0.445,0.359-0.801,0.801-0.801
		S40.801,25.156,40.801,25.602L40.801,25.602z M40.801,25.602"/>
	<path d="M7.199,31.199C7.199,31.641,6.844,32,6.398,32c-0.441,0-0.796-0.359-0.796-0.801s0.355-0.801,0.796-0.801
		C6.844,30.398,7.199,30.758,7.199,31.199L7.199,31.199z M7.199,31.199"/>
	<path d="M12.801,31.199C12.801,31.641,12.441,32,12,32s-0.801-0.359-0.801-0.801s0.36-0.801,0.801-0.801
		S12.801,30.758,12.801,31.199L12.801,31.199z M12.801,31.199"/>
	<path d="M18.398,31.199c0,0.441-0.355,0.801-0.796,0.801c-0.446,0-0.801-0.359-0.801-0.801s0.354-0.801,0.801-0.801
		C18.043,30.398,18.398,30.758,18.398,31.199L18.398,31.199z M18.398,31.199"/>
	<path d="M24,31.199C24,31.641,23.641,32,23.199,32c-0.441,0-0.801-0.359-0.801-0.801s0.36-0.801,0.801-0.801
		C23.641,30.398,24,30.758,24,31.199L24,31.199z M24,31.199"/>
	<path d="M29.602,31.199c0,0.441-0.359,0.801-0.801,0.801S28,31.641,28,31.199s0.359-0.801,0.801-0.801S29.602,30.758,29.602,31.199
		L29.602,31.199z M29.602,31.199"/>
	<path d="M35.199,31.199c0,0.441-0.355,0.801-0.801,0.801c-0.441,0-0.797-0.359-0.797-0.801s0.355-0.801,0.797-0.801
		C34.844,30.398,35.199,30.758,35.199,31.199L35.199,31.199z M35.199,31.199"/>
	<path d="M40.801,31.199C40.801,31.641,40.441,32,40,32s-0.801-0.359-0.801-0.801s0.359-0.801,0.801-0.801
		S40.801,30.758,40.801,31.199L40.801,31.199z M40.801,31.199"/>
	<path d="M7.199,37.602c0,0.441-0.354,0.797-0.801,0.797c-0.441,0-0.796-0.355-0.796-0.797c0-0.445,0.355-0.801,0.796-0.801
		C6.844,36.801,7.199,37.156,7.199,37.602L7.199,37.602z M7.199,37.602"/>
	<path d="M12.801,37.602c0,0.441-0.36,0.797-0.801,0.797s-0.801-0.355-0.801-0.797c0-0.445,0.36-0.801,0.801-0.801
		S12.801,37.156,12.801,37.602L12.801,37.602z M12.801,37.602"/>
	<path d="M18.398,37.602c0,0.441-0.355,0.797-0.796,0.797c-0.446,0-0.801-0.355-0.801-0.797c0-0.445,0.354-0.801,0.801-0.801
		C18.043,36.801,18.398,37.156,18.398,37.602L18.398,37.602z M18.398,37.602"/>
	<path d="M24,37.602c0,0.441-0.359,0.797-0.801,0.797c-0.441,0-0.801-0.355-0.801-0.797c0-0.445,0.36-0.801,0.801-0.801
		C23.641,36.801,24,37.156,24,37.602L24,37.602z M24,37.602"/>
	<path d="M29.602,37.602c0,0.441-0.359,0.797-0.801,0.797S28,38.043,28,37.602c0-0.445,0.359-0.801,0.801-0.801
		S29.602,37.156,29.602,37.602L29.602,37.602z M29.602,37.602"/>
</g>
</svg>
